<svg display="none" xmlns="http://www.w3.org/2000/svg">
<symbol width="26.999512" height="27.576447" viewBox="0 0 26.9995 27.5764" id="globe-icon">
	<path id="Vector" d="M19.67 6.13L19.7 6.33L19.4 6.4L19.36 6.83L19.71 6.83L20.19 6.79L20.44 6.49L20.18 6.38L20.03 6.21L19.82 5.86L19.71 5.35L19.31 5.43L19.2 5.61L19.2 5.81L19.39 5.95L19.67 6.13Z" fill="#FFFFFF" fill-opacity="1.000000" fill-rule="nonzero"/>
	<path id="Vector" d="M19.32 6.3L19.35 6.02L19.11 5.92L18.77 6L18.53 6.4L18.53 6.66L18.81 6.66L19.32 6.3Z" fill="#FFFFFF" fill-opacity="1.000000" fill-rule="nonzero"/>
	<path id="Vector" d="M12.47 7.46L12.39 7.65L12.04 7.65L12.04 7.84L12.12 7.84C12.12 7.84 12.13 7.88 12.13 7.93L12.35 7.91L12.49 7.82L12.52 7.65L12.7 7.63L12.77 7.49L12.61 7.45L12.47 7.46Z" fill="#FFFFFF" fill-opacity="1.000000" fill-rule="nonzero"/>
	<path id="Vector" d="M11.55 7.8L11.54 7.98L11.79 7.96L11.82 7.77L11.67 7.65L11.55 7.8Z" fill="#FFFFFF" fill-opacity="1.000000" fill-rule="nonzero"/>
	<path id="Vector" d="M26.99 13.64C26.99 13.24 26.97 12.84 26.93 12.44C26.81 11.13 26.5 9.87 26.04 8.69C26 8.6 25.97 8.51 25.93 8.42C25.32 6.94 24.46 5.59 23.4 4.43C23.33 4.35 23.26 4.28 23.19 4.2C22.99 3.99 22.79 3.79 22.58 3.59C20.18 1.36 16.99 0 13.49 0C9.97 0 6.76 1.38 4.35 3.65C3.79 4.18 3.28 4.75 2.81 5.37C1.05 7.7 0 10.62 0 13.78C0 21.39 6.05 27.57 13.5 27.57C18.73 27.57 23.28 24.51 25.52 20.05C25.99 19.09 26.37 18.08 26.62 17.01C26.68 16.74 26.74 16.47 26.78 16.19C26.92 15.41 26.99 14.6 26.99 13.78C27 13.74 26.99 13.69 26.99 13.64ZM24.45 8.13L24.53 8.04C24.63 8.24 24.73 8.45 24.82 8.66L24.69 8.66L24.45 8.69L24.45 8.13ZM22.5 5.72L22.5 5.11C22.71 5.34 22.92 5.57 23.11 5.82L22.87 6.19L22.02 6.18L21.97 6L22.5 5.72ZM6.22 4.19L6.22 4.17L6.49 4.17L6.51 4.08L6.95 4.08L6.95 4.27L6.82 4.45L6.21 4.45L6.22 4.19ZM6.65 4.81C6.65 4.81 6.92 4.76 6.94 4.76C6.96 4.76 6.94 5.04 6.94 5.04L6.33 5.08L6.22 4.93L6.65 4.81ZM25.31 10.28L24.32 10.28L23.72 9.82L23.09 9.89L23.09 10.28L22.89 10.28L22.67 10.12L21.57 9.84L21.57 9.11L20.18 9.22L19.75 9.46L19.2 9.46L18.93 9.43L18.26 9.81L18.26 10.53L16.89 11.54L17 11.97L17.28 11.97L17.21 12.38L17.01 12.45L17 13.53L18.19 14.9L18.7 14.9L18.73 14.82L19.66 14.82L19.93 14.57L20.45 14.57L20.74 14.86L21.52 14.94L21.42 16.01L22.29 17.57L21.83 18.47L21.86 18.89L22.22 19.26L22.22 20.27L22.69 20.92L22.69 21.76L23.1 21.76C20.83 24.61 17.37 26.44 13.49 26.44C6.66 26.44 1.11 20.76 1.11 13.78C1.11 12.03 1.46 10.35 2.09 8.83L2.09 8.44L2.54 7.89C2.69 7.59 2.86 7.3 3.03 7.02L3.05 7.25L2.54 7.89C2.38 8.19 2.23 8.51 2.1 8.83L2.1 9.55L2.61 9.8L2.61 10.81L3.1 11.67L3.5 11.73L3.56 11.43L3.08 10.69L2.99 9.96L3.27 9.96L3.38 10.71L4.07 11.73L3.89 12.06L4.33 12.74L5.41 13.01L5.41 12.83L5.84 12.9L5.8 13.21L6.14 13.27L6.67 13.42L7.41 14.28L8.35 14.36L8.45 15.15L7.8 15.61L7.77 16.31L7.67 16.74L8.61 17.94L8.68 18.35C8.68 18.35 9.02 18.45 9.07 18.45C9.11 18.45 9.83 19 9.83 19L9.83 21.17L10.08 21.24L9.91 22.24L10.34 22.83L10.26 23.82L10.83 24.85L11.57 25.5L12.3 25.52L12.38 25.27L11.83 24.81L11.87 24.58L11.96 24.29L11.98 24L11.62 23.99L11.43 23.76L11.74 23.46L11.78 23.23L11.44 23.13L11.46 22.92L11.94 22.85L12.68 22.49L12.93 22.02L13.7 21.01L13.52 20.22L13.76 19.8L14.47 19.83L14.95 19.44L15.1 17.92L15.63 17.23L15.72 16.79L15.24 16.63L14.92 16.09L13.83 16.08L12.97 15.74L12.92 15.11L12.64 14.6L11.85 14.59L11.4 13.86L11 13.66L10.98 13.88L10.25 13.93L9.98 13.55L9.22 13.39L8.59 14.13L7.6 13.96L7.53 12.82L6.81 12.7L7.1 12.14L7.02 11.82L6.07 12.46L5.47 12.39L5.26 11.91L5.39 11.42L5.72 10.8L6.47 10.41L7.94 10.41L7.93 10.87L8.46 11.12L8.42 10.34L8.79 9.95L9.56 9.44L9.61 9.08L10.37 8.27L11.18 7.81L11.11 7.75L11.66 7.22L11.86 7.28L11.95 7.39L12.16 7.16L12.21 7.13L11.98 7.1L11.75 7.02L11.75 6.8L11.88 6.69L12.15 6.69L12.27 6.75L12.38 6.97L12.51 6.95L12.51 6.93L12.55 6.94L12.93 6.88L12.98 6.69L13.2 6.75L13.2 6.96L12.99 7.1L13 7.1L13.02 7.32L13.71 7.54C13.71 7.54 13.71 7.54 13.71 7.55L13.87 7.53L13.88 7.23L13.34 6.98L13.31 6.83L13.76 6.67L13.78 6.23L13.31 5.93L13.27 5.19L12.63 5.51L12.39 5.51L12.45 4.95L11.57 4.73L11.2 5.02L11.2 5.88L10.55 6.09L10.28 6.65L10 6.7L10 5.98L9.38 5.89L9.07 5.69L8.95 5.22L10.05 4.56L10.59 4.39L10.65 4.76L10.95 4.75L10.97 4.56L11.29 4.52L11.29 4.45L11.16 4.39L11.12 4.2L11.51 4.16L11.75 3.91L11.76 3.9L11.76 3.9L11.83 3.82L12.65 3.72L13.01 4.03L12.06 4.54L13.26 4.83L13.42 4.42L13.94 4.42L14.13 4.06L13.76 3.97L13.76 3.52L12.59 2.99L11.79 3.09L11.34 3.33L11.37 3.92L10.9 3.84L10.82 3.52L11.28 3.1L10.45 3.06L10.22 3.13L10.11 3.41L10.42 3.47L10.36 3.78L9.84 3.81L9.75 4.02L8.99 4.04C8.99 4.04 8.97 3.6 8.94 3.6C8.91 3.6 9.54 3.59 9.54 3.59L9.99 3.14L9.74 3.01L9.41 3.34L8.87 3.31L8.54 2.84L7.84 2.84L7.11 3.4L7.78 3.4L7.84 3.6L7.66 3.77L8.41 3.79L8.52 4.06L7.68 4.03L7.64 3.82L7.12 3.7L6.84 3.55L6.22 3.55C8.26 2.03 10.78 1.13 13.49 1.13C16.63 1.13 19.49 2.33 21.67 4.29L21.53 4.56L20.96 4.79L20.71 5.05L20.77 5.37L21.06 5.41L21.24 5.86L21.75 5.65L21.83 6.26L21.68 6.26L21.26 6.2L20.8 6.28L20.35 6.92L19.71 7.03L19.62 7.59L19.89 7.65L19.81 8.01L19.18 7.88L18.59 8.01L18.47 8.34L18.57 9.04L18.91 9.2L19.49 9.2L19.87 9.16L19.99 8.85L20.6 8.04L21 8.13L21.39 7.76L21.46 8.05L22.43 8.71L22.31 8.88L21.88 8.85L22.05 9.1L22.31 9.16L22.63 9.02L22.62 8.63L22.76 8.56L22.65 8.44L22 8.07L21.83 7.59L22.37 7.59L22.54 7.76L23 8.17L23.02 8.66L23.5 9.18L23.68 8.47L24.01 8.28L24.07 8.86L24.4 9.23L25.04 9.22C25.17 9.54 25.28 9.88 25.38 10.22L25.31 10.28ZM7.36 6.26L7.68 6.1L7.98 6.17L7.87 6.58L7.56 6.68L7.36 6.26ZM9.08 7.21L9.08 7.47L8.34 7.47L8.06 7.39L8.13 7.21L8.49 7.06L8.97 7.06L8.97 7.21L9.08 7.21ZM9.42 7.57L9.42 7.82L9.23 7.94L9 7.99C9 7.99 9 7.61 9 7.57L9.42 7.57ZM9.21 7.47L9.21 7.17L9.47 7.4L9.21 7.47ZM9.33 8.07L9.33 8.32L9.15 8.5L8.76 8.5L8.82 8.22L9 8.21L9.04 8.11L9.33 8.07ZM8.35 7.57L8.76 7.57L8.23 8.32L8.01 8.2L8.06 7.88L8.35 7.57ZM10.02 7.99L10.02 8.23L9.63 8.23L9.52 8.07L9.52 7.85L9.55 7.85L10.02 7.99ZM9.66 7.65L9.77 7.53L9.96 7.65L9.81 7.78L9.66 7.65ZM25.51 10.92L25.55 10.87C25.57 10.95 25.58 11.02 25.6 11.09L25.51 10.92Z" fill="#FFFFFF" fill-opacity="1.000000" fill-rule="nonzero"/>
    <path id="Vector" d="M2.09 8.44L2.09 8.83C2.23 8.51 2.38 8.19 2.54 7.89L2.09 8.44Z" fill="#FFFFFF" fill-opacity="1.000000" fill-rule="nonzero"/>
	</symbol>

    
    <symbol  viewBox="0 0 27.0934 40.6119" id="light-icon">
        <path id="XMLID 49" d="M19.81 33.92L19.81 35.47C19.81 36.7 18.87 37.73 17.65 37.9L17.25 39.31C17.04 40.07 16.33 40.61 15.5 40.61L11.57 40.61C10.75 40.61 10.03 40.07 9.82 39.31L9.43 37.9C8.2 37.72 7.26 36.7 7.26 35.46L7.26 33.91C7.26 33.08 7.95 32.42 8.81 32.42L18.26 32.42C19.12 32.43 19.81 33.09 19.81 33.92ZM27.09 13.05C27.09 16.57 25.64 19.77 23.29 22.11C21.5 23.9 20.34 26.18 19.96 28.61C19.79 29.66 18.85 30.43 17.74 30.43L9.33 30.43C8.23 30.43 7.28 29.67 7.13 28.62C6.73 26.19 5.56 23.88 3.78 22.1C1.47 19.79 0.03 16.65 0 13.19C-0.08 5.93 5.91 0.05 13.45 0C20.98 -0.06 27.09 5.81 27.09 13.05ZM15.07 5.14C15.07 4.34 14.39 3.67 13.54 3.67C8.16 3.67 3.76 7.89 3.76 13.09C3.76 13.9 4.44 14.56 5.29 14.56C6.13 14.56 6.82 13.91 6.82 13.09C6.82 9.52 9.84 6.61 13.54 6.61C14.39 6.61 15.07 5.96 15.07 5.14Z" fill="#000000" fill-opacity="1.000000" fill-rule="nonzero"/>
    </symbol>
    
    
	
	
	<symbol viewBox="0 0 47.3865 38.7328" id="desktop-icon">
		<path id="Vector" d="M19.99 15.66C17.48 15.66 16.07 17.66 15.81 19.52C15.64 20.81 15.17 22.09 14.73 23.08L19.99 23.08C22.29 23.08 24.15 21.41 24.15 19.37C24.15 17.33 22.29 15.66 19.99 15.66Z" fill="#000000" fill-opacity="1.000000" fill-rule="nonzero"/>
		<path id="Vector" d="M45.99 0L1.38 0C0.62 0 0 0.55 0 1.23L0 23.08L11.7 23.08C12.14 22.24 12.86 20.7 13.06 19.22C13.28 17.6 14.04 16.11 15.2 15.03C16.46 13.85 18.17 13.19 19.99 13.19C20.32 13.19 20.65 13.21 20.97 13.26L29.1 6.02C29.88 5.32 30.93 4.94 32.04 4.94C33.15 4.94 34.2 5.32 34.99 6.02C35.77 6.72 36.21 7.65 36.21 8.64C36.21 9.63 35.77 10.57 34.99 11.27L26.86 18.5C26.91 18.78 26.93 19.07 26.93 19.37C26.93 20.76 26.41 22.04 25.54 23.08L47.38 23.08L47.38 1.23C47.38 0.55 46.76 0 45.99 0Z" fill="#000000" fill-opacity="1.000000" fill-rule="nonzero"/>
		<path id="Vector" d="M25.78 15.97L33.02 9.52C33.29 9.28 33.43 8.97 33.43 8.64C33.43 8.31 33.29 8 33.02 7.77C32.76 7.54 32.41 7.41 32.04 7.41C31.67 7.41 31.32 7.54 31.06 7.77L23.81 14.22C24.59 14.68 25.26 15.27 25.78 15.97Z" fill="#000000" fill-opacity="1.000000" fill-rule="nonzero"/>
		<path id="Vector" d="M0 30.08C0 30.76 0.62 31.31 1.38 31.31L45.99 31.31C46.76 31.31 47.38 30.76 47.38 30.08L47.38 25.55L0 25.55L0 30.08Z" fill="#000000" fill-opacity="1.000000" fill-rule="nonzero"/>
		<path id="Vector" d="M30.63 36.26L29.24 36.26L29.24 33.79L18.14 33.79L18.14 36.26L16.75 36.26C15.98 36.26 15.36 36.81 15.36 37.49C15.36 38.17 15.98 38.73 16.75 38.73L30.63 38.73C31.4 38.73 32.02 38.17 32.02 37.49C32.02 36.81 31.4 36.26 30.63 36.26Z" fill="#000000" fill-opacity="1.000000" fill-rule="nonzero"/>
	</symbol>
	
	
	<symbol  viewBox="0 0 50.1099 31.2014" id="tag-icon">
		<path id="Vector" d="M7.09 0L43.01 0C46.92 0 50.1 2.7 50.1 6.03L50.1 25.16C50.1 28.49 46.92 31.2 43.01 31.2L7.09 31.2C3.18 31.2 0 28.49 0 25.16L0 6.03C0 2.7 3.18 0 7.09 0ZM31.92 9.6L39.38 15.95L32.75 21.59C32.17 22.08 32.17 22.87 32.75 23.36C33.32 23.85 34.25 23.85 34.82 23.36L42.49 16.83C43.07 16.34 43.07 15.55 42.49 15.06L34 7.83C33.42 7.34 32.49 7.34 31.92 7.83C31.35 8.32 31.35 9.11 31.92 9.6ZM19.81 6.66L27.57 25.37C27.84 26.02 28.68 26.36 29.45 26.13C30.21 25.9 30.61 25.18 30.34 24.53L22.58 5.83C22.31 5.18 21.47 4.83 20.71 5.06C19.94 5.29 19.54 6.01 19.81 6.66ZM7.61 16.13L16.1 23.36C16.68 23.85 17.61 23.85 18.18 23.36C18.75 22.87 18.75 22.08 18.18 21.59L10.72 15.24L17.35 9.6C17.93 9.11 17.93 8.32 17.35 7.83C16.78 7.34 15.85 7.34 15.28 7.83L7.61 14.36C7.03 14.85 7.03 15.64 7.61 16.13Z" fill="#000000" fill-opacity="1.000000" fill-rule="nonzero"/>
	</symbol>

	<symbol  viewBox="0 0 43 41" id="maintenance-icon">
	<path id="Vector" d="M23.09 0L3.77 0C1.69 0 0 1.61 0 3.6L0 9.6L18.89 9.6L23.09 0ZM6.29 6C5.6 6 5.03 5.46 5.03 4.8C5.03 4.14 5.6 3.6 6.29 3.6C6.99 3.6 7.55 4.14 7.55 4.8C7.55 5.46 6.99 6 6.29 6ZM11.33 6C10.64 6 10.07 5.46 10.07 4.8C10.07 4.14 10.64 3.6 11.33 3.6C12.03 3.6 12.59 4.14 12.59 4.8C12.59 5.46 12.03 6 11.33 6ZM16.37 6C15.68 6 15.11 5.46 15.11 4.8C15.11 4.14 15.68 3.6 16.37 3.6C17.07 3.6 17.63 4.14 17.63 4.8C17.63 5.46 17.07 6 16.37 6Z" fill="#000000" fill-opacity="1.000000" fill-rule="nonzero"/>
	<path id="Vector" d="M25.27 18.88L25.27 23.3C25.27 23.96 24.71 24.5 24.01 24.5L18.98 24.5C18.28 24.5 17.72 23.96 17.72 23.3L17.72 18.88C16.16 20 15.2 21.76 15.2 23.68C15.2 25.97 16.54 28.02 18.7 29.05C19.12 29.25 19.4 29.67 19.4 30.12L19.4 41L23.59 41L23.59 30.12C23.59 29.67 23.87 29.25 24.29 29.05C26.45 28.02 27.79 25.97 27.79 23.68C27.79 21.76 26.83 20 25.27 18.88Z" fill="#000000" fill-opacity="1.000000" fill-rule="nonzero"/>
	<path id="Vector" d="M39.22 0L25.82 0L20.89 11.27C20.7 11.72 20.24 12.01 19.73 12.01L0 12.01L0 37.39C0 39.38 1.69 41 3.77 41L16.88 41L16.88 30.83C14.27 29.3 12.68 26.63 12.68 23.68C12.68 20.13 15.04 16.95 18.56 15.76C18.94 15.63 19.37 15.69 19.7 15.91C20.04 16.14 20.24 16.5 20.24 16.89L20.24 22.1L22.75 22.1L22.75 16.89C22.75 16.5 22.95 16.14 23.29 15.91C23.62 15.69 24.05 15.63 24.44 15.76C27.95 16.95 30.31 20.13 30.31 23.68C30.31 26.63 28.72 29.3 26.11 30.83L26.11 41L39.22 41C41.3 41 43 39.38 43 37.39L43 3.6C43 1.61 41.3 0 39.22 0ZM9.65 18.01L6.29 18.01C5.6 18.01 5.03 17.47 5.03 16.81C5.03 16.15 5.6 15.61 6.29 15.61L9.65 15.61C10.35 15.61 10.91 16.15 10.91 16.81C10.91 17.47 10.35 18.01 9.65 18.01Z" fill="#000000" fill-opacity="1.000000" fill-rule="nonzero"/>
</symbol>

<symbol  viewBox="0 0 44 42" id="testing-icon">
	<defs>
		<clipPath id="clip53_74">
			<rect id="exam 1" rx="0.000000" width="43.000000" height="41.000000" transform="translate(0.500000 0.500000)" fill="white" fill-opacity="0"/>
		</clipPath>
	</defs>
	<rect id="exam 1" rx="0.000000" width="43.000000" height="41.000000" transform="translate(0.500000 0.500000)" fill="#FFFFFF" fill-opacity="0"/>
	<g clip-path="url(#clip53_74)">
		<path id="Vector" d="M40.13 0L3.86 0C1.73 0 0 1.65 0 3.69L0 28.46C0 30.5 1.73 32.15 3.86 32.15L15.46 32.15L15.46 34.61L28.44 34.61L28.44 32.15L40.13 32.15C42.26 32.15 44 30.5 44 28.46L44 3.69C44 1.65 42.26 0 40.13 0ZM15.09 21.86L9.93 26.79C9.43 27.27 8.61 27.27 8.11 26.79L5.53 24.33C5.03 23.85 5.03 23.07 5.53 22.59C6.03 22.11 6.85 22.11 7.35 22.59L9.02 24.18L13.26 20.12C13.77 19.64 14.58 19.64 15.09 20.12C15.59 20.61 15.59 21.38 15.09 21.86ZM15.09 14.48L9.93 19.4C9.43 19.88 8.61 19.88 8.11 19.4L5.53 16.94C5.03 16.46 5.03 15.68 5.53 15.2C6.03 14.72 6.85 14.72 7.35 15.2L9.02 16.79L13.26 12.74C13.77 12.26 14.58 12.26 15.09 12.74C15.59 13.22 15.59 14 15.09 14.48ZM15.09 7.1L9.93 12.02C9.43 12.5 8.61 12.5 8.11 12.02L5.53 9.56C5.03 9.08 5.03 8.3 5.53 7.82C6.03 7.34 6.85 7.34 7.35 7.82L9.02 9.41L13.26 5.36C13.77 4.88 14.58 4.88 15.09 5.36C15.59 5.84 15.59 6.62 15.09 7.1ZM37.55 24.69L19.33 24.69C18.62 24.69 18.04 24.14 18.04 23.46C18.04 22.78 18.62 22.23 19.33 22.23L37.55 22.23C38.26 22.23 38.84 22.78 38.84 23.46C38.84 24.14 38.26 24.69 37.55 24.69ZM37.55 17.3L19.33 17.3C18.62 17.3 18.04 16.75 18.04 16.07C18.04 15.39 18.62 14.84 19.33 14.84L37.55 14.84C38.26 14.84 38.84 15.39 38.84 16.07C38.84 16.75 38.26 17.3 37.55 17.3ZM37.55 9.92L19.33 9.92C18.62 9.92 18.04 9.37 18.04 8.69C18.04 8.01 18.62 7.46 19.33 7.46L37.55 7.46C38.26 7.46 38.84 8.01 38.84 8.69C38.84 9.37 38.26 9.92 37.55 9.92Z" fill="#000000" fill-opacity="1.000000" fill-rule="nonzero"/>
		<path id="Vector" d="M31.02 37.07L12.97 37.07C10.13 37.07 7.82 39.28 7.82 42L36.17 42C36.17 39.28 33.86 37.07 31.02 37.07Z" fill="#000000" fill-opacity="1.000000" fill-rule="nonzero"/>
	</g>
</symbol>

<symbol  viewBox="0 0 42 36" id="integration-icon">
	<defs>
		<clipPath id="clip53_101">
			<rect id="intersect 1" rx="0.000000" width="41.000000" height="35.000000" transform="translate(0.500000 0.500000)" fill="white" fill-opacity="0"/>
		</clipPath>
	</defs>
	<rect id="intersect 1" rx="0.000000" width="41.000000" height="35.000000" transform="translate(0.500000 0.500000)" fill="#FFFFFF" fill-opacity="0"/>
	<g clip-path="url(#clip53_101)">
		<path id="Vector" d="M16.07 12.72L27.15 12.72L27.15 1.05C27.15 0.47 26.6 0 25.92 0L1.23 0C0.55 0 0 0.47 0 1.05L0 22.21C0 22.8 0.55 23.27 1.23 23.27L14.84 23.27L14.84 13.78C14.84 13.19 15.39 12.72 16.07 12.72Z" fill="#000000" fill-opacity="1.000000" fill-rule="nonzero"/>
		<path id="Vector" d="M40.76 12.72L27.15 12.72L27.15 22.21C27.15 22.8 26.6 23.27 25.92 23.27L14.84 23.27L14.84 34.94C14.84 35.52 15.39 36 16.07 36L40.76 36C41.44 36 42 35.52 42 34.94L42 13.78C42 13.19 41.44 12.72 40.76 12.72Z" fill="#000000" fill-opacity="1.000000" fill-rule="nonzero"/>
	</g>
</symbol>







<symbol id="arrow" viewBox="0 0 47.3626 29.5342">

	<path id="Vector" d="M47.07 15.41L32.27 29.26C31.88 29.62 31.26 29.62 30.87 29.26C30.49 28.9 30.49 28.31 30.87 27.95L43.99 15.68L0.98 15.68C0.44 15.68 0 15.27 0 14.76C0 14.25 0.44 13.84 0.98 13.84L43.99 13.84L30.87 1.57C30.49 1.21 30.49 0.63 30.87 0.27C31.07 0.09 31.32 0 31.57 0C31.82 0 32.08 0.09 32.27 0.27L47.07 14.11C47.45 14.47 47.45 15.05 47.07 15.41Z" fill="#000000" fill-opacity="1.000000" fill-rule="nonzero"/>
</symbol>

<symbol id="in" viewBox="0 0 25 23.6113">
	<path id="Vector" d="M21.33 0L3.66 0C1.64 0 0 1.55 0 3.45L0 20.15C0 22.05 1.64 23.61 3.66 23.61L21.33 23.61C23.35 23.61 25 22.05 25 20.15L25 3.45C25 1.55 23.35 0 21.33 0ZM8.83 18.72L5.9 18.72L5.9 9.03L8.83 9.03L8.83 18.72ZM8.83 7.65L5.9 7.65L5.9 4.88L8.83 4.88L8.83 7.65ZM19.09 18.72L16.16 18.72L16.16 13.18C16.16 12.42 15.5 11.8 14.69 11.8C13.88 11.8 13.23 12.42 13.23 13.18L13.23 18.72L10.3 18.72L10.3 9.03L13.23 9.03L13.23 9.56C13.99 9.33 14.49 9.03 15.42 9.03C17.41 9.04 19.09 10.72 19.09 12.71L19.09 18.72Z" fill="#FFFFFF" fill-opacity="1.000000" fill-rule="nonzero"/>
</symbol>



<symbol id="facebook" viewBox="0 0 24.9998 23.6113" >

	<path id="Vector" d="M21.63 0L3.36 0C1.5 0 0 1.42 0 3.18L0 20.42C0 22.18 1.5 23.61 3.36 23.61L12.37 23.61L12.39 15.17L10.07 15.17C9.76 15.17 9.52 14.94 9.52 14.65L9.51 11.93C9.51 11.65 9.75 11.41 10.05 11.41L12.37 11.41L12.37 8.79C12.37 5.74 14.34 4.08 17.22 4.08L19.59 4.08C19.89 4.08 20.13 4.31 20.13 4.59L20.13 6.89C20.13 7.17 19.89 7.4 19.59 7.4L18.14 7.4C16.57 7.4 16.27 8.11 16.27 9.14L16.27 11.41L19.71 11.41C20.04 11.41 20.29 11.68 20.25 11.99L19.91 14.71C19.88 14.97 19.65 15.17 19.37 15.17L16.28 15.17L16.27 23.61L21.63 23.61C23.49 23.61 24.99 22.18 24.99 20.42L24.99 3.18C24.99 1.42 23.49 0 21.63 0Z" fill="#FFFFFF" fill-opacity="1.000000" fill-rule="nonzero"/>
</symbol>




<symbol id="insta" viewBox="0 0 25 23.6113" >

		<clipPath id="clip281_37">
			<rect id="instagram 1" rx="0.000000" width="24.000000" height="22.611111" transform="translate(0.500000 0.500000)" fill="white" fill-opacity="0"/>
		</clipPath>
	</defs>
	<rect id="instagram 1" rx="0.000000" width="24.000000" height="22.611111" transform="translate(0.500000 0.500000)" fill="#FFFFFF" fill-opacity="0"/>
	<g clip-path="url(#clip281_37)">
		<path id="Vector" d="M21.33 0L3.66 0C1.64 0 0 1.55 0 3.45L0 20.15C0 22.05 1.64 23.61 3.66 23.61L21.33 23.61C23.35 23.61 25 22.05 25 20.15L25 3.45C25 1.55 23.35 0 21.33 0ZM12.54 17.98C8.91 17.98 5.95 15.19 5.95 11.75C5.95 8.32 8.91 5.53 12.54 5.53C16.18 5.53 19.14 8.32 19.14 11.75C19.14 15.19 16.18 17.98 12.54 17.98ZM19.87 6.91C18.66 6.91 17.67 5.98 17.67 4.84C17.67 3.69 18.66 2.76 19.87 2.76C21.08 2.76 22.07 3.69 22.07 4.84C22.07 5.98 21.08 6.91 19.87 6.91Z" fill="#FFFFFF" fill-opacity="1.000000" fill-rule="nonzero"/>
		<path id="Vector" d="M19.87 4.15C19.46 4.15 19.14 4.46 19.14 4.84C19.14 5.22 19.46 5.53 19.87 5.53C20.27 5.53 20.6 5.22 20.6 4.84C20.6 4.46 20.27 4.15 19.87 4.15Z" fill="#FFFFFF" fill-opacity="1.000000" fill-rule="nonzero"/>
		<path id="Vector" d="M12.54 6.91C9.72 6.91 7.42 9.08 7.42 11.75C7.42 14.42 9.72 16.6 12.54 16.6C15.37 16.6 17.67 14.42 17.67 11.75C17.67 9.08 15.37 6.91 12.54 6.91Z" fill="#FFFFFF" fill-opacity="1.000000" fill-rule="nonzero"/>
	</g>
</symbol>



</svg>
